<mxfile host="app.diagrams.net" modified="2023-06-07T07:06:55.771Z" agent="Mozilla/5.0 (Macintosh; Intel Mac OS X 10_15_7) AppleWebKit/605.1.15 (KHTML, like Gecko) Version/15.6 Safari/605.1.15" etag="_3G-UH5D2Eh2dxJ9b0EL" version="21.3.7" type="github">
  <diagram id="C5RBs43oDa-KdzZeNtuy" name="Page-1">
    <mxGraphModel dx="2035" dy="792" grid="1" gridSize="10" guides="1" tooltips="1" connect="1" arrows="1" fold="1" page="1" pageScale="1" pageWidth="827" pageHeight="1169" math="0" shadow="0">
      <root>
        <mxCell id="WIyWlLk6GJQsqaUBKTNV-0" />
        <mxCell id="WIyWlLk6GJQsqaUBKTNV-1" parent="WIyWlLk6GJQsqaUBKTNV-0" />
        <mxCell id="A3PnLcKBzpXXrkk-UIbl-3" value="Menu&amp;nbsp;" style="swimlane;fontStyle=0;childLayout=stackLayout;horizontal=1;startSize=26;fillColor=none;horizontalStack=0;resizeParent=1;resizeParentMax=0;resizeLast=0;collapsible=1;marginBottom=0;html=1;" vertex="1" parent="WIyWlLk6GJQsqaUBKTNV-1">
          <mxGeometry x="340" y="280" width="144" height="130" as="geometry" />
        </mxCell>
        <mxCell id="A3PnLcKBzpXXrkk-UIbl-4" value="&lt;font style=&quot;font-size: 8.588234901428223px;&quot;&gt;Menu_Storage: Dict&lt;br&gt;get_price: float&lt;br&gt;allow_dish: void&amp;nbsp;&lt;br&gt;&lt;br&gt;&lt;br&gt;&lt;/font&gt;" style="text;strokeColor=none;fillColor=none;align=left;verticalAlign=top;spacingLeft=4;spacingRight=4;overflow=hidden;rotatable=0;points=[[0,0.5],[1,0.5]];portConstraint=eastwest;whiteSpace=wrap;html=1;perimeterSpacing=1;" vertex="1" parent="A3PnLcKBzpXXrkk-UIbl-3">
          <mxGeometry y="26" width="144" height="54" as="geometry" />
        </mxCell>
        <mxCell id="A3PnLcKBzpXXrkk-UIbl-5" value="&lt;font style=&quot;font-size: 9px;&quot;&gt;dish_available: bool&amp;nbsp;&lt;br style=&quot;font-size: 9px;&quot;&gt;dishes: dict&amp;nbsp;&lt;br style=&quot;font-size: 9px;&quot;&gt;ban_dishes: void&lt;/font&gt;" style="text;strokeColor=none;fillColor=none;align=left;verticalAlign=top;spacingLeft=4;spacingRight=4;overflow=hidden;rotatable=0;points=[[0,0.5],[1,0.5]];portConstraint=eastwest;whiteSpace=wrap;html=1;" vertex="1" parent="A3PnLcKBzpXXrkk-UIbl-3">
          <mxGeometry y="80" width="144" height="50" as="geometry" />
        </mxCell>
        <mxCell id="A3PnLcKBzpXXrkk-UIbl-7" value="MenuFile" style="ellipse;whiteSpace=wrap;html=1;align=center;newEdgeStyle={&quot;edgeStyle&quot;:&quot;entityRelationEdgeStyle&quot;,&quot;startArrow&quot;:&quot;none&quot;,&quot;endArrow&quot;:&quot;none&quot;,&quot;segment&quot;:10,&quot;curved&quot;:1,&quot;sourcePerimeterSpacing&quot;:0,&quot;targetPerimeterSpacing&quot;:0};treeFolding=1;treeMoving=1;" vertex="1" parent="WIyWlLk6GJQsqaUBKTNV-1">
          <mxGeometry x="364" y="210" width="100" height="40" as="geometry" />
        </mxCell>
        <mxCell id="A3PnLcKBzpXXrkk-UIbl-10" value="" style="endArrow=classic;html=1;rounded=0;exitX=0.5;exitY=1;exitDx=0;exitDy=0;" edge="1" parent="WIyWlLk6GJQsqaUBKTNV-1" source="A3PnLcKBzpXXrkk-UIbl-7" target="A3PnLcKBzpXXrkk-UIbl-3">
          <mxGeometry width="50" height="50" relative="1" as="geometry">
            <mxPoint x="450" y="410" as="sourcePoint" />
            <mxPoint x="500" y="360" as="targetPoint" />
          </mxGeometry>
        </mxCell>
        <mxCell id="A3PnLcKBzpXXrkk-UIbl-67" style="edgeStyle=orthogonalEdgeStyle;rounded=0;orthogonalLoop=1;jettySize=auto;html=1;" edge="1" parent="WIyWlLk6GJQsqaUBKTNV-1" source="A3PnLcKBzpXXrkk-UIbl-11">
          <mxGeometry relative="1" as="geometry">
            <mxPoint x="170" y="420" as="targetPoint" />
          </mxGeometry>
        </mxCell>
        <mxCell id="A3PnLcKBzpXXrkk-UIbl-11" value="Kitchen&amp;nbsp;" style="swimlane;fontStyle=0;childLayout=stackLayout;horizontal=1;startSize=26;fillColor=none;horizontalStack=0;resizeParent=1;resizeParentMax=0;resizeLast=0;collapsible=1;marginBottom=0;html=1;" vertex="1" parent="WIyWlLk6GJQsqaUBKTNV-1">
          <mxGeometry x="100" y="450" width="140" height="126" as="geometry" />
        </mxCell>
        <mxCell id="A3PnLcKBzpXXrkk-UIbl-12" value="&lt;font style=&quot;font-size: 9px;&quot;&gt;insert(list[int,str,int,[int]]): void&lt;br&gt;pop: list[str, int, list[str]]&lt;br&gt;&lt;br&gt;&lt;/font&gt;" style="text;strokeColor=none;fillColor=none;align=left;verticalAlign=top;spacingLeft=4;spacingRight=4;overflow=hidden;rotatable=0;points=[[0,0.5],[1,0.5]];portConstraint=eastwest;whiteSpace=wrap;html=1;" vertex="1" parent="A3PnLcKBzpXXrkk-UIbl-11">
          <mxGeometry y="26" width="140" height="44" as="geometry" />
        </mxCell>
        <mxCell id="A3PnLcKBzpXXrkk-UIbl-13" value="&lt;font style=&quot;font-size: 9px;&quot;&gt;set_task(Menu.Menu):void&lt;br&gt;&lt;br style=&quot;font-size: 9px;&quot;&gt;&lt;/font&gt;" style="text;strokeColor=none;fillColor=none;align=left;verticalAlign=top;spacingLeft=4;spacingRight=4;overflow=hidden;rotatable=0;points=[[0,0.5],[1,0.5]];portConstraint=eastwest;whiteSpace=wrap;html=1;" vertex="1" parent="A3PnLcKBzpXXrkk-UIbl-11">
          <mxGeometry y="70" width="140" height="30" as="geometry" />
        </mxCell>
        <mxCell id="A3PnLcKBzpXXrkk-UIbl-14" value="tick: void" style="text;strokeColor=none;fillColor=none;align=left;verticalAlign=top;spacingLeft=4;spacingRight=4;overflow=hidden;rotatable=0;points=[[0,0.5],[1,0.5]];portConstraint=eastwest;whiteSpace=wrap;html=1;" vertex="1" parent="A3PnLcKBzpXXrkk-UIbl-11">
          <mxGeometry y="100" width="140" height="26" as="geometry" />
        </mxCell>
        <mxCell id="A3PnLcKBzpXXrkk-UIbl-17" value="Orders" style="swimlane;fontStyle=0;childLayout=stackLayout;horizontal=1;startSize=30;horizontalStack=0;resizeParent=1;resizeParentMax=0;resizeLast=0;collapsible=1;marginBottom=0;whiteSpace=wrap;html=1;" vertex="1" parent="WIyWlLk6GJQsqaUBKTNV-1">
          <mxGeometry x="-10" y="600" width="180" height="230" as="geometry" />
        </mxCell>
        <mxCell id="A3PnLcKBzpXXrkk-UIbl-18" value="&lt;font style=&quot;font-size: 10px;&quot;&gt;add_dish: void&lt;br&gt;remove_dish: void&lt;br&gt;get_bill: void&lt;br&gt;&lt;/font&gt;" style="text;strokeColor=none;fillColor=none;align=left;verticalAlign=middle;spacingLeft=4;spacingRight=4;overflow=hidden;points=[[0,0.5],[1,0.5]];portConstraint=eastwest;rotatable=0;whiteSpace=wrap;html=1;" vertex="1" parent="A3PnLcKBzpXXrkk-UIbl-17">
          <mxGeometry y="30" width="180" height="50" as="geometry" />
        </mxCell>
        <mxCell id="A3PnLcKBzpXXrkk-UIbl-20" value="remove_dishes_from_order(cur_order: Order)&lt;br&gt;create_order: void&lt;br&gt;open_order_menu: void&amp;nbsp;&lt;br&gt;open_menu: void&amp;nbsp;&lt;br&gt;set_database(self, s_database: SalesDatabase, v_database: VisitorDatabase)" style="text;strokeColor=none;fillColor=none;align=left;verticalAlign=middle;spacingLeft=4;spacingRight=4;overflow=hidden;points=[[0,0.5],[1,0.5]];portConstraint=eastwest;rotatable=0;whiteSpace=wrap;html=1;" vertex="1" parent="A3PnLcKBzpXXrkk-UIbl-17">
          <mxGeometry y="80" width="180" height="150" as="geometry" />
        </mxCell>
        <mxCell id="A3PnLcKBzpXXrkk-UIbl-21" value="RestaurantRunner" style="swimlane;fontStyle=0;childLayout=stackLayout;horizontal=1;startSize=30;horizontalStack=0;resizeParent=1;resizeParentMax=0;resizeLast=0;collapsible=1;marginBottom=0;whiteSpace=wrap;html=1;" vertex="1" parent="WIyWlLk6GJQsqaUBKTNV-1">
          <mxGeometry x="280" y="600" width="190" height="140" as="geometry" />
        </mxCell>
        <mxCell id="A3PnLcKBzpXXrkk-UIbl-22" value="&lt;font style=&quot;font-size: 9px;&quot;&gt;connect_orders_terminal(item: &#39;OrderTerminal&#39;): void&lt;br&gt;connect_cooking_terminal(item: &#39;CookingTerminal&#39;): void&lt;br&gt;&lt;br&gt;&lt;/font&gt;" style="text;strokeColor=none;fillColor=none;align=left;verticalAlign=middle;spacingLeft=4;spacingRight=4;overflow=hidden;points=[[0,0.5],[1,0.5]];portConstraint=eastwest;rotatable=0;whiteSpace=wrap;html=1;" vertex="1" parent="A3PnLcKBzpXXrkk-UIbl-21">
          <mxGeometry y="30" width="190" height="60" as="geometry" />
        </mxCell>
        <mxCell id="A3PnLcKBzpXXrkk-UIbl-24" value="&lt;font style=&quot;font-size: 9px;&quot;&gt;send_ready_dishes(ready_dishes: list[str, list[int]]): void&lt;br&gt;send_order_tasks: void&lt;br&gt;&lt;/font&gt;" style="text;strokeColor=none;fillColor=none;align=left;verticalAlign=middle;spacingLeft=4;spacingRight=4;overflow=hidden;points=[[0,0.5],[1,0.5]];portConstraint=eastwest;rotatable=0;whiteSpace=wrap;html=1;" vertex="1" parent="A3PnLcKBzpXXrkk-UIbl-21">
          <mxGeometry y="90" width="190" height="50" as="geometry" />
        </mxCell>
        <mxCell id="A3PnLcKBzpXXrkk-UIbl-27" style="edgeStyle=orthogonalEdgeStyle;rounded=0;orthogonalLoop=1;jettySize=auto;html=1;exitX=1;exitY=0.5;exitDx=0;exitDy=0;entryX=1.022;entryY=0.192;entryDx=0;entryDy=0;entryPerimeter=0;" edge="1" parent="WIyWlLk6GJQsqaUBKTNV-1" target="A3PnLcKBzpXXrkk-UIbl-13">
          <mxGeometry relative="1" as="geometry">
            <mxPoint x="470" y="705" as="sourcePoint" />
            <Array as="points">
              <mxPoint x="490" y="705" />
              <mxPoint x="490" y="526" />
            </Array>
          </mxGeometry>
        </mxCell>
        <mxCell id="A3PnLcKBzpXXrkk-UIbl-29" style="edgeStyle=orthogonalEdgeStyle;rounded=0;orthogonalLoop=1;jettySize=auto;html=1;exitX=1;exitY=0.5;exitDx=0;exitDy=0;entryX=0.564;entryY=1.033;entryDx=0;entryDy=0;entryPerimeter=0;" edge="1" parent="WIyWlLk6GJQsqaUBKTNV-1" source="A3PnLcKBzpXXrkk-UIbl-5" target="A3PnLcKBzpXXrkk-UIbl-24">
          <mxGeometry relative="1" as="geometry">
            <Array as="points">
              <mxPoint x="504" y="385" />
              <mxPoint x="504" y="770" />
              <mxPoint x="387" y="770" />
            </Array>
          </mxGeometry>
        </mxCell>
        <mxCell id="A3PnLcKBzpXXrkk-UIbl-31" value="DataBase" style="swimlane;fontStyle=0;childLayout=stackLayout;horizontal=1;startSize=30;horizontalStack=0;resizeParent=1;resizeParentMax=0;resizeLast=0;collapsible=1;marginBottom=0;whiteSpace=wrap;html=1;" vertex="1" parent="WIyWlLk6GJQsqaUBKTNV-1">
          <mxGeometry x="550" y="265" width="150" height="180" as="geometry" />
        </mxCell>
        <mxCell id="A3PnLcKBzpXXrkk-UIbl-32" value="&lt;font style=&quot;font-size: 9px;&quot;&gt;class Bill&lt;br&gt;add_bill(bill: Bill): void&lt;br&gt;get_sale_by_index: void&lt;br&gt;&lt;br&gt;&lt;br&gt;&lt;/font&gt;" style="text;strokeColor=none;fillColor=none;align=left;verticalAlign=middle;spacingLeft=4;spacingRight=4;overflow=hidden;points=[[0,0.5],[1,0.5]];portConstraint=eastwest;rotatable=0;whiteSpace=wrap;html=1;" vertex="1" parent="A3PnLcKBzpXXrkk-UIbl-31">
          <mxGeometry y="30" width="150" height="50" as="geometry" />
        </mxCell>
        <mxCell id="A3PnLcKBzpXXrkk-UIbl-33" value="&lt;font style=&quot;font-size: 9px;&quot;&gt;get_all_sales: void&lt;br style=&quot;font-size: 9px;&quot;&gt;print_sale: void&lt;br style=&quot;font-size: 9px;&quot;&gt;print_all_sales: void&lt;/font&gt;" style="text;strokeColor=none;fillColor=none;align=left;verticalAlign=middle;spacingLeft=4;spacingRight=4;overflow=hidden;points=[[0,0.5],[1,0.5]];portConstraint=eastwest;rotatable=0;whiteSpace=wrap;html=1;" vertex="1" parent="A3PnLcKBzpXXrkk-UIbl-31">
          <mxGeometry y="80" width="150" height="50" as="geometry" />
        </mxCell>
        <mxCell id="A3PnLcKBzpXXrkk-UIbl-34" value="&lt;font style=&quot;font-size: 9px;&quot;&gt;save_data: void&lt;br style=&quot;font-size: 9px;&quot;&gt;load_data: void&amp;nbsp;&lt;br style=&quot;font-size: 9px;&quot;&gt;open_menu: void&amp;nbsp;&lt;/font&gt;" style="text;strokeColor=none;fillColor=none;align=left;verticalAlign=middle;spacingLeft=4;spacingRight=4;overflow=hidden;points=[[0,0.5],[1,0.5]];portConstraint=eastwest;rotatable=0;whiteSpace=wrap;html=1;" vertex="1" parent="A3PnLcKBzpXXrkk-UIbl-31">
          <mxGeometry y="130" width="150" height="50" as="geometry" />
        </mxCell>
        <mxCell id="A3PnLcKBzpXXrkk-UIbl-30" style="edgeStyle=orthogonalEdgeStyle;rounded=0;orthogonalLoop=1;jettySize=auto;html=1;exitX=0;exitY=0.5;exitDx=0;exitDy=0;" edge="1" parent="WIyWlLk6GJQsqaUBKTNV-1" source="A3PnLcKBzpXXrkk-UIbl-24" target="A3PnLcKBzpXXrkk-UIbl-31">
          <mxGeometry relative="1" as="geometry">
            <mxPoint x="880" y="640" as="targetPoint" />
            <Array as="points">
              <mxPoint x="280" y="740" />
              <mxPoint x="320" y="740" />
              <mxPoint x="320" y="760" />
              <mxPoint x="260" y="760" />
              <mxPoint x="260" y="800" />
              <mxPoint x="640" y="800" />
            </Array>
          </mxGeometry>
        </mxCell>
        <mxCell id="A3PnLcKBzpXXrkk-UIbl-35" value="SalesAnalys" style="swimlane;fontStyle=0;childLayout=stackLayout;horizontal=1;startSize=30;horizontalStack=0;resizeParent=1;resizeParentMax=0;resizeLast=0;collapsible=1;marginBottom=0;whiteSpace=wrap;html=1;" vertex="1" parent="WIyWlLk6GJQsqaUBKTNV-1">
          <mxGeometry x="680" y="490" width="140" height="140" as="geometry" />
        </mxCell>
        <mxCell id="A3PnLcKBzpXXrkk-UIbl-36" value="&lt;font style=&quot;font-size: 9px;&quot;&gt;class SalesAnalys, SalesFacade, ShippingAdapter&lt;br&gt;total_revenue: void&lt;br&gt;popular_dishes: void&lt;br&gt;&lt;/font&gt;" style="text;strokeColor=none;fillColor=none;align=left;verticalAlign=middle;spacingLeft=4;spacingRight=4;overflow=hidden;points=[[0,0.5],[1,0.5]];portConstraint=eastwest;rotatable=0;whiteSpace=wrap;html=1;" vertex="1" parent="A3PnLcKBzpXXrkk-UIbl-35">
          <mxGeometry y="30" width="140" height="50" as="geometry" />
        </mxCell>
        <mxCell id="A3PnLcKBzpXXrkk-UIbl-37" value="sales_statistics: void&amp;nbsp;&lt;br&gt;get_shipments: void" style="text;strokeColor=none;fillColor=none;align=left;verticalAlign=middle;spacingLeft=4;spacingRight=4;overflow=hidden;points=[[0,0.5],[1,0.5]];portConstraint=eastwest;rotatable=0;whiteSpace=wrap;html=1;" vertex="1" parent="A3PnLcKBzpXXrkk-UIbl-35">
          <mxGeometry y="80" width="140" height="40" as="geometry" />
        </mxCell>
        <mxCell id="A3PnLcKBzpXXrkk-UIbl-38" value="shipping_statistics: void" style="text;strokeColor=none;fillColor=none;align=left;verticalAlign=middle;spacingLeft=4;spacingRight=4;overflow=hidden;points=[[0,0.5],[1,0.5]];portConstraint=eastwest;rotatable=0;whiteSpace=wrap;html=1;" vertex="1" parent="A3PnLcKBzpXXrkk-UIbl-35">
          <mxGeometry y="120" width="140" height="20" as="geometry" />
        </mxCell>
        <mxCell id="A3PnLcKBzpXXrkk-UIbl-39" style="edgeStyle=orthogonalEdgeStyle;rounded=0;orthogonalLoop=1;jettySize=auto;html=1;exitX=1;exitY=0.5;exitDx=0;exitDy=0;entryX=0;entryY=0.5;entryDx=0;entryDy=0;" edge="1" parent="WIyWlLk6GJQsqaUBKTNV-1" source="A3PnLcKBzpXXrkk-UIbl-33" target="A3PnLcKBzpXXrkk-UIbl-37">
          <mxGeometry relative="1" as="geometry" />
        </mxCell>
        <mxCell id="A3PnLcKBzpXXrkk-UIbl-42" style="edgeStyle=orthogonalEdgeStyle;rounded=0;orthogonalLoop=1;jettySize=auto;html=1;entryX=0.5;entryY=0;entryDx=0;entryDy=0;exitX=1;exitY=0.5;exitDx=0;exitDy=0;" edge="1" parent="WIyWlLk6GJQsqaUBKTNV-1" source="A3PnLcKBzpXXrkk-UIbl-37" target="A3PnLcKBzpXXrkk-UIbl-41">
          <mxGeometry relative="1" as="geometry">
            <mxPoint x="950" y="590" as="targetPoint" />
            <mxPoint x="940" y="590" as="sourcePoint" />
            <Array as="points">
              <mxPoint x="820" y="590" />
              <mxPoint x="860" y="590" />
              <mxPoint x="860" y="720" />
            </Array>
          </mxGeometry>
        </mxCell>
        <mxCell id="A3PnLcKBzpXXrkk-UIbl-41" value="SalesData" style="ellipse;whiteSpace=wrap;html=1;" vertex="1" parent="WIyWlLk6GJQsqaUBKTNV-1">
          <mxGeometry x="770" y="720" width="120" height="80" as="geometry" />
        </mxCell>
        <mxCell id="A3PnLcKBzpXXrkk-UIbl-43" value="WareHouse" style="swimlane;fontStyle=0;childLayout=stackLayout;horizontal=1;startSize=30;horizontalStack=0;resizeParent=1;resizeParentMax=0;resizeLast=0;collapsible=1;marginBottom=0;whiteSpace=wrap;html=1;" vertex="1" parent="WIyWlLk6GJQsqaUBKTNV-1">
          <mxGeometry x="-310" y="600" width="270" height="230" as="geometry" />
        </mxCell>
        <mxCell id="A3PnLcKBzpXXrkk-UIbl-44" value="&lt;font style=&quot;font-size: 9px;&quot;&gt;class Product,&amp;nbsp;Order_product,&amp;nbsp;WarehouseManager,&amp;nbsp;WarehouseMenu&lt;/font&gt;" style="text;strokeColor=none;fillColor=none;align=left;verticalAlign=middle;spacingLeft=4;spacingRight=4;overflow=hidden;points=[[0,0.5],[1,0.5]];portConstraint=eastwest;rotatable=0;whiteSpace=wrap;html=1;" vertex="1" parent="A3PnLcKBzpXXrkk-UIbl-43">
          <mxGeometry y="30" width="270" height="50" as="geometry" />
        </mxCell>
        <mxCell id="A3PnLcKBzpXXrkk-UIbl-45" value="&lt;font style=&quot;font-size: 9px;&quot;&gt;add_product(product: Product): void&lt;br&gt;remove_product(product: Product): void&lt;br&gt;get_all_products: void&amp;nbsp;&lt;br&gt;change_order_status: void&lt;br&gt;&lt;/font&gt;" style="text;strokeColor=none;fillColor=none;align=left;verticalAlign=middle;spacingLeft=4;spacingRight=4;overflow=hidden;points=[[0,0.5],[1,0.5]];portConstraint=eastwest;rotatable=0;whiteSpace=wrap;html=1;" vertex="1" parent="A3PnLcKBzpXXrkk-UIbl-43">
          <mxGeometry y="80" width="270" height="50" as="geometry" />
        </mxCell>
        <mxCell id="A3PnLcKBzpXXrkk-UIbl-46" value="&lt;font style=&quot;font-size: 9px;&quot;&gt;&lt;font style=&quot;font-size: 9px;&quot;&gt;open_menu: void&lt;br style=&quot;font-size: 9px;&quot;&gt;&lt;/font&gt;add_product: void&amp;nbsp;&lt;br&gt;remove_produc: void &lt;br&gt;get_all_products: void&amp;nbsp;&lt;br&gt;search_product: void&amp;nbsp;&lt;br&gt;create_order, change_order : void&amp;nbsp;&lt;br&gt;&lt;/font&gt;" style="text;strokeColor=none;fillColor=none;align=left;verticalAlign=middle;spacingLeft=4;spacingRight=4;overflow=hidden;points=[[0,0.5],[1,0.5]];portConstraint=eastwest;rotatable=0;whiteSpace=wrap;html=1;" vertex="1" parent="A3PnLcKBzpXXrkk-UIbl-43">
          <mxGeometry y="130" width="270" height="100" as="geometry" />
        </mxCell>
        <mxCell id="A3PnLcKBzpXXrkk-UIbl-62" value="CookingTerminal" style="swimlane;fontStyle=0;childLayout=stackLayout;horizontal=1;startSize=30;horizontalStack=0;resizeParent=1;resizeParentMax=0;resizeLast=0;collapsible=1;marginBottom=0;whiteSpace=wrap;html=1;" vertex="1" parent="WIyWlLk6GJQsqaUBKTNV-1">
          <mxGeometry x="100" y="260" width="140" height="150" as="geometry" />
        </mxCell>
        <mxCell id="A3PnLcKBzpXXrkk-UIbl-63" value="&lt;font style=&quot;font-size: 9px;&quot;&gt;set_menu(Menu.Menu): void&lt;br&gt;check_menu: void&lt;br&gt;&lt;br&gt;&lt;/font&gt;" style="text;strokeColor=none;fillColor=none;align=left;verticalAlign=middle;spacingLeft=4;spacingRight=4;overflow=hidden;points=[[0,0.5],[1,0.5]];portConstraint=eastwest;rotatable=0;whiteSpace=wrap;html=1;" vertex="1" parent="A3PnLcKBzpXXrkk-UIbl-62">
          <mxGeometry y="30" width="140" height="30" as="geometry" />
        </mxCell>
        <mxCell id="A3PnLcKBzpXXrkk-UIbl-64" value="&lt;font style=&quot;font-size: 9px;&quot;&gt;add_performer: void&lt;br&gt;remove_performer: void&lt;br&gt;&lt;/font&gt;" style="text;strokeColor=none;fillColor=none;align=left;verticalAlign=middle;spacingLeft=4;spacingRight=4;overflow=hidden;points=[[0,0.5],[1,0.5]];portConstraint=eastwest;rotatable=0;whiteSpace=wrap;html=1;" vertex="1" parent="A3PnLcKBzpXXrkk-UIbl-62">
          <mxGeometry y="60" width="140" height="30" as="geometry" />
        </mxCell>
        <mxCell id="A3PnLcKBzpXXrkk-UIbl-65" value="&lt;font style=&quot;font-size: 9px;&quot;&gt;tick: void&lt;br&gt;add_tasks(order: Orders.Order)&lt;br&gt;get_info: void&lt;br&gt;open_menu: void&lt;br&gt;&lt;br&gt;&lt;/font&gt;" style="text;strokeColor=none;fillColor=none;align=left;verticalAlign=middle;spacingLeft=4;spacingRight=4;overflow=hidden;points=[[0,0.5],[1,0.5]];portConstraint=eastwest;rotatable=0;whiteSpace=wrap;html=1;" vertex="1" parent="A3PnLcKBzpXXrkk-UIbl-62">
          <mxGeometry y="90" width="140" height="60" as="geometry" />
        </mxCell>
        <mxCell id="A3PnLcKBzpXXrkk-UIbl-68" style="edgeStyle=orthogonalEdgeStyle;rounded=0;orthogonalLoop=1;jettySize=auto;html=1;exitX=1;exitY=0.5;exitDx=0;exitDy=0;entryX=-0.02;entryY=0.655;entryDx=0;entryDy=0;entryPerimeter=0;" edge="1" parent="WIyWlLk6GJQsqaUBKTNV-1" source="A3PnLcKBzpXXrkk-UIbl-64" target="A3PnLcKBzpXXrkk-UIbl-4">
          <mxGeometry relative="1" as="geometry" />
        </mxCell>
        <mxCell id="A3PnLcKBzpXXrkk-UIbl-71" style="edgeStyle=orthogonalEdgeStyle;rounded=0;orthogonalLoop=1;jettySize=auto;html=1;entryX=0;entryY=0.5;entryDx=0;entryDy=0;" edge="1" parent="WIyWlLk6GJQsqaUBKTNV-1" source="A3PnLcKBzpXXrkk-UIbl-20" target="A3PnLcKBzpXXrkk-UIbl-21">
          <mxGeometry relative="1" as="geometry">
            <Array as="points">
              <mxPoint x="225" y="720" />
              <mxPoint x="225" y="700" />
              <mxPoint x="250" y="700" />
              <mxPoint x="250" y="670" />
            </Array>
          </mxGeometry>
        </mxCell>
        <mxCell id="A3PnLcKBzpXXrkk-UIbl-72" style="edgeStyle=orthogonalEdgeStyle;rounded=0;orthogonalLoop=1;jettySize=auto;html=1;exitX=0;exitY=0.5;exitDx=0;exitDy=0;" edge="1" parent="WIyWlLk6GJQsqaUBKTNV-1" source="A3PnLcKBzpXXrkk-UIbl-74" target="A3PnLcKBzpXXrkk-UIbl-43">
          <mxGeometry relative="1" as="geometry">
            <mxPoint x="-100" y="405" as="sourcePoint" />
          </mxGeometry>
        </mxCell>
        <mxCell id="A3PnLcKBzpXXrkk-UIbl-73" style="edgeStyle=orthogonalEdgeStyle;rounded=0;orthogonalLoop=1;jettySize=auto;html=1;entryX=0;entryY=0.5;entryDx=0;entryDy=0;" edge="1" parent="WIyWlLk6GJQsqaUBKTNV-1" source="A3PnLcKBzpXXrkk-UIbl-46" target="A3PnLcKBzpXXrkk-UIbl-24">
          <mxGeometry relative="1" as="geometry">
            <Array as="points">
              <mxPoint x="-175" y="850" />
              <mxPoint x="190" y="850" />
              <mxPoint x="190" y="745" />
              <mxPoint x="260" y="745" />
              <mxPoint x="260" y="715" />
            </Array>
          </mxGeometry>
        </mxCell>
        <mxCell id="A3PnLcKBzpXXrkk-UIbl-74" value="WarehouseProducts" style="ellipse;whiteSpace=wrap;html=1;" vertex="1" parent="WIyWlLk6GJQsqaUBKTNV-1">
          <mxGeometry x="-80" y="410" width="120" height="80" as="geometry" />
        </mxCell>
        <mxCell id="A3PnLcKBzpXXrkk-UIbl-75" style="edgeStyle=orthogonalEdgeStyle;rounded=0;orthogonalLoop=1;jettySize=auto;html=1;entryX=0.571;entryY=1;entryDx=0;entryDy=0;entryPerimeter=0;" edge="1" parent="WIyWlLk6GJQsqaUBKTNV-1" source="A3PnLcKBzpXXrkk-UIbl-24" target="A3PnLcKBzpXXrkk-UIbl-38">
          <mxGeometry relative="1" as="geometry">
            <mxPoint x="230" y="890" as="targetPoint" />
          </mxGeometry>
        </mxCell>
      </root>
    </mxGraphModel>
  </diagram>
</mxfile>
